<svg xmlns="http://www.w3.org/2000/svg" viewBox="0 0 343.2 85.31">
  <defs>
    <style>
      .cls-1 {
        fill: #a65225;
      }

      .cls-2 {
        fill: #fff;
      }

      .cls-3 {
        fill: #414042;
      }
    </style>
  </defs>
  <g id="Layer_2" data-name="Layer 2">
    <g id="Layer_1-2" data-name="Layer 1">
      <g>
        <g>
          <rect class="cls-1" width="85.31" height="85.31" rx="13.46"/>
          <g>
            <path class="cls-2" d="M70.79,37.94h0l-.16-.17,5.43-10.49L65.61,32.76l-.16-.17h0c-.27-3.09-.53-6.19-.8-9.28L33,57.09l3.06,3.06c2.29-2.3,5.76-2.56,7.73-.58s1.73,5.44-.57,7.74l3.06,3.06L80.08,38.74ZM46.78,50,43.9,47.14,45,46l2.88,2.87Zm4.72,4.72-2.87-2.87,1.1-1.1,2.87,2.87Zm4.73,4.73L53.35,56.6l1.11-1.11,2.87,2.88Z"/>
            <path class="cls-2" d="M15.67,27.65h0l-.12.12L8.06,23.9c1.31,2.48,2.61,5,3.91,7.45l-.11.12h0L5.23,32,29.33,54.6l2.18-2.18a3.93,3.93,0,0,1-.41-5.52,3.93,3.93,0,0,1,5.52.41l2.18-2.18L16.24,21Zm8.61,17.14-2.05,2.05-.78-.79,2.05-2Zm3.38-3.37-2.05,2-.79-.79,2.05-2ZM31,38.05l-2.05,2-.79-.78,2-2.05Z"/>
            <path class="cls-2" d="M45.22,19.27H45L42.2,14.94l-2.78,4.33h-.18L33.6,17l1.2,17.77h3.42c0-1.25,1.8-2.26,4-2.26s4,1,4,2.26h3.42q.6-8.9,1.21-17.77Zm-6.68,9.81H35.33v-.6h3.21Zm5.29,0H40.61v-.6h3.22Zm5.28,0H45.9v-.6h3.21Z"/>
          </g>
        </g>
        <g>
          <path class="cls-3" d="M100.78,59.45V25.84H113.7c4,0,7,.69,9.14,2.06a6.55,6.55,0,0,1,3.2,5.81,6.66,6.66,0,0,1-2,4.76,10.3,10.3,0,0,1-5,2.84v.09a10.1,10.1,0,0,1,6.05,2.65,7.22,7.22,0,0,1,2.27,5.37A8.78,8.78,0,0,1,124,56.74q-3.49,2.71-9.54,2.71Zm8-28v8h3.51a6.08,6.08,0,0,0,3.9-1.14,3.79,3.79,0,0,0,1.43-3.13q0-3.7-5.85-3.7Zm0,13.59v8.86h4.33a7,7,0,0,0,4.35-1.22A4,4,0,0,0,119,49.32a3.73,3.73,0,0,0-1.55-3.16A7.09,7.09,0,0,0,113.16,45Z"/>
          <path class="cls-3" d="M164.52,59.45H155.8L153.27,52H140.65l-2.51,7.48h-8.66L142.4,25.84h9.49ZM151.44,46.16l-3.81-11.3a14.25,14.25,0,0,1-.6-3h-.19a12.67,12.67,0,0,1-.62,2.93l-3.87,11.39Z"/>
          <path class="cls-3" d="M197.6,57.2A26.77,26.77,0,0,1,184.67,60q-8.56,0-13.51-4.48t-4.94-12.37a16.78,16.78,0,0,1,5.4-12.91q5.4-5,14.36-5a30.8,30.8,0,0,1,10,1.47v7.11a20.68,20.68,0,0,0-10.05-2.25,11.09,11.09,0,0,0-8.11,3,10.91,10.91,0,0,0-3.14,8.17c0,3.45.94,6.13,2.81,8A10.22,10.22,0,0,0,185,53.68a11,11,0,0,0,4.56-.77V46.35h-7.11V40.3H197.6Z"/>
          <path class="cls-3" d="M212.5,59.45h-8V25.84h8Z"/>
          <path class="cls-3" d="M250.37,59.45h-9.19l-5.52-8.65c-.42-.66-.81-1.24-1.19-1.76a11.1,11.1,0,0,0-1.15-1.32,4.73,4.73,0,0,0-1.22-.85,3.3,3.3,0,0,0-1.37-.29h-2.16V59.45h-8V25.84h12.67q12.93,0,12.93,9.14A8.8,8.8,0,0,1,244,40.91,10,10,0,0,1,241.49,43a13.39,13.39,0,0,1-3.28,1.36v.1a5.09,5.09,0,0,1,1.53.76,10.22,10.22,0,0,1,1.44,1.23,17.61,17.61,0,0,1,1.32,1.51c.42.54.81,1.07,1.15,1.58Zm-21.8-27.94v9.35H232a6,6,0,0,0,4.14-1.4,4.61,4.61,0,0,0,1.58-3.54q0-4.41-5.57-4.41Z"/>
          <path class="cls-3" d="M284.91,59.45h-8.72L273.67,52H261l-2.5,7.48h-8.67l12.92-33.61h9.49ZM271.83,46.16,268,34.86a13.69,13.69,0,0,1-.59-3h-.2a12.67,12.67,0,0,1-.62,2.93l-3.86,11.39Z"/>
          <path class="cls-3" d="M310.73,32H300.61V59.45h-8V32H282.51V25.84h28.22Z"/>
          <path class="cls-3" d="M343.2,59.45h-8.72L332,52H319.33l-2.51,7.48h-8.66l12.92-33.61h9.49ZM330.12,46.16l-3.81-11.3a14.25,14.25,0,0,1-.6-3h-.19a12.67,12.67,0,0,1-.62,2.93L321,46.16Z"/>
        </g>
      </g>
    </g>
  </g>
</svg>
