<svg xmlns="http://www.w3.org/2000/svg" viewBox="0 0 85.31 85.31">
  <defs>
    <style>
      .cls-1 {
        fill: #a65225;
      }

      .cls-2 {
        fill: #fff;
      }
    </style>
  </defs>
  <g id="Layer_2" data-name="Layer 2">
    <g id="Layer_1-2" data-name="Layer 1">
      <g>
        <rect class="cls-1" width="85.31" height="85.31" rx="13.46"/>
        <g>
          <path class="cls-2" d="M70.79,37.94h0l-.16-.17,5.43-10.49L65.61,32.76l-.16-.17h0c-.27-3.09-.53-6.19-.8-9.28L33,57.09l3.06,3.06c2.29-2.3,5.76-2.56,7.73-.58s1.73,5.44-.57,7.74l3.06,3.06L80.08,38.74ZM46.78,50,43.9,47.14,45,46l2.88,2.87Zm4.72,4.72-2.87-2.87,1.1-1.1,2.87,2.87Zm4.73,4.73L53.35,56.6l1.11-1.11,2.87,2.88Z"/>
          <path class="cls-2" d="M15.67,27.65h0l-.12.12L8.06,23.9c1.31,2.48,2.61,5,3.91,7.45l-.11.12h0L5.23,32,29.33,54.6l2.18-2.18a3.93,3.93,0,0,1-.41-5.52,3.93,3.93,0,0,1,5.52.41l2.18-2.18L16.24,21Zm8.61,17.14-2.05,2.05-.78-.79,2.05-2Zm3.38-3.37-2.05,2-.79-.79,2.05-2ZM31,38.05l-2.05,2-.79-.78,2-2.05Z"/>
          <path class="cls-2" d="M45.22,19.27H45L42.2,14.94l-2.78,4.33h-.18L33.6,17l1.2,17.77h3.42c0-1.25,1.8-2.26,4-2.26s4,1,4,2.26h3.42q.6-8.9,1.21-17.77Zm-6.68,9.81H35.33v-.6h3.21Zm5.29,0H40.61v-.6h3.22Zm5.28,0H45.9v-.6h3.21Z"/>
        </g>
      </g>
    </g>
  </g>
</svg>
